<svg xmlns="http://www.w3.org/2000/svg" viewBox="0 0 3312 1584"><defs><style>.cls-1{fill:#3CE8A6;}</style></defs><g id="Layer_2" data-name="Layer 2"><g id="Layer_1-2" data-name="Layer 1"><rect class="cls-1" width="720" height="144"/><rect class="cls-1" x="-288" y="288" width="720" height="144" transform="translate(-288 432) rotate(-90)"/><rect class="cls-1" y="576" width="720" height="144"/><rect class="cls-1" x="468" y="432" width="360" height="144" transform="translate(144 1152) rotate(-90)"/><rect class="cls-1" x="360" y="288" width="360" height="144"/><rect class="cls-1" x="576" y="288" width="720" height="144" transform="translate(576 1296) rotate(-90)"/><rect class="cls-1" x="864" width="720" height="144"/><rect class="cls-1" x="864" y="288" width="720" height="144"/><rect class="cls-1" x="1332" y="144" width="360" height="144" transform="translate(1296 1728) rotate(-90)"/><rect class="cls-1" x="1188" y="468" width="360" height="144" transform="translate(828 1908) rotate(-90)"/><rect class="cls-1" x="1440" y="288" width="720" height="144" transform="translate(1440 2160) rotate(-90)"/><rect class="cls-1" x="1728" y="288" width="720" height="144" transform="translate(1728 2448) rotate(-90)"/><rect class="cls-1" x="2016" width="432" height="144"/><rect class="cls-1" x="2016" y="288" width="432" height="144"/><rect class="cls-1" x="2592" width="720" height="144"/><rect class="cls-1" x="2592" y="288" width="720" height="144" transform="translate(2592 3312) rotate(-90)"/><rect class="cls-1" y="864" width="720" height="144"/><rect class="cls-1" y="1152" width="720" height="144"/><rect class="cls-1" y="1440" width="720" height="144"/><rect class="cls-1" x="-108" y="1008" width="360" height="144" transform="translate(-1008 1152) rotate(-90)"/><rect class="cls-1" x="468" y="1296" width="360" height="144" transform="translate(-720 2016) rotate(-90)"/><rect class="cls-1" x="576" y="1152" width="720" height="144" transform="translate(-288 2160) rotate(-90)"/><rect class="cls-1" x="1152" y="1152" width="720" height="144" transform="translate(288 2736) rotate(-90)"/><rect class="cls-1" x="864" y="1152" width="720" height="144"/><rect class="cls-1" x="1440" y="1152" width="720" height="144" transform="translate(576 3024) rotate(-90)"/><rect class="cls-1" x="1728" y="864" width="720" height="144"/><rect class="cls-1" x="2016" y="1152" width="720" height="144" transform="translate(1152 3600) rotate(-90)"/><rect class="cls-1" x="1728" y="1440" width="720" height="144"/><rect class="cls-1" x="1728" y="1152" width="720" height="144" transform="translate(-253.94 1834.94) rotate(-45)"/><rect class="cls-1" x="2304" y="1152" width="720" height="144" transform="translate(1440 3888) rotate(-90)"/><rect class="cls-1" x="2592" y="864" width="720" height="144"/><rect class="cls-1" x="2592" y="1152" width="720" height="144"/><rect class="cls-1" x="3060" y="1008" width="360" height="144" transform="translate(2160 4320) rotate(-90)"/></g></g></svg>
