<svg width="24" height="24" viewBox="0 0 24 24" fill="none" xmlns="http://www.w3.org/2000/svg">
<path d="M15 6H9V7H7V9H6V15H7V17H9V18H15V17H17V15H18V9H17V7H15V6Z" fill="white"/>
<path d="M9 18V19H15V18H9Z" fill="#FFAC01"/>
<path d="M7 17V18H9V17H7Z" fill="#FFAC01"/>
<path d="M7 15H6V17H7V15Z" fill="#FFAC01"/>
<path d="M5 15H6V9H5V15Z" fill="#FFAC01"/>
<path d="M6 9H7V7H6L6 9Z" fill="#FFAC01"/>
<path d="M7 6V7H9V6H7Z" fill="#FFAC01"/>
<path d="M9 5V6H15V5H9Z" fill="#FFAC01"/>
<path d="M17 7V6H15V7H17Z" fill="#FFAC01"/>
<path d="M17 9H18V7H17V9Z" fill="#FFAC01"/>
<path d="M18 15H19V9H18V15Z" fill="#FFAC01"/>
<path d="M18 15H17V17H18V15Z" fill="#FFAC01"/>
<path d="M17 18V17H15V18H17Z" fill="#FFAC01"/>
<path d="M11.5 9H12.5V13H11.5V9Z" fill="#FFAC01"/>
<path d="M11.5 14H12.5V15H11.5V14Z" fill="#FFAC01"/>
</svg>
