<?xml version="1.0" standalone="no"?>
<!DOCTYPE svg PUBLIC "-//W3C//DTD SVG 20010904//EN"
 "http://www.w3.org/TR/2001/REC-SVG-20010904/DTD/svg10.dtd">
<svg version="1.0" xmlns="http://www.w3.org/2000/svg"
 width="258.000000pt" height="133.000000pt" viewBox="0 0 258.000000 133.000000"
 preserveAspectRatio="xMidYMid meet">

<g transform="translate(0.000000,133.000000) scale(0.100000,-0.100000)"
fill="#000000" stroke="none">
<path d="M490 1307 c-142 -44 -263 -123 -342 -224 -303 -387 -119 -933 359
-1064 65 -18 96 -21 183 -17 183 9 327 73 450 199 76 77 121 149 158 251 23
66 26 87 26 213 0 126 -3 147 -26 213 -37 102 -82 174 -158 251 -128 131 -269
191 -460 197 -99 4 -125 1 -190 -19z m226 -336 c23 -22 44 -45 47 -53 4 -7 11
-20 15 -28 5 -8 13 -24 19 -35 6 -11 19 -22 29 -23 10 -2 34 -18 52 -35 23
-23 32 -40 32 -64 0 -28 4 -33 23 -33 21 0 147 -112 147 -132 0 -4 18 -25 40
-47 22 -21 40 -43 40 -49 0 -5 7 -15 15 -22 8 -7 15 -23 15 -35 0 -21 -6 -24
-65 -30 -36 -4 -68 -11 -70 -16 -3 -4 -27 -11 -53 -15 -26 -4 -49 -10 -52 -15
-11 -16 -170 -22 -243 -9 -40 7 -76 17 -82 22 -5 4 -18 8 -30 8 -11 0 -33 7
-49 15 -16 8 -46 18 -68 21 -21 4 -41 10 -43 15 -3 4 -26 11 -50 15 -25 3 -45
10 -45 15 0 5 -8 9 -19 9 -10 0 -24 7 -31 15 -7 8 -20 15 -29 15 -36 0 -41 21
-41 156 0 78 4 135 10 139 5 3 10 22 10 41 0 19 4 34 9 34 4 0 11 19 14 41 3
23 10 45 14 48 5 3 12 14 16 23 7 19 81 34 127 24 17 -3 30 -1 30 4 0 14 27
18 130 19 l95 0 41 -38z"/>
</g>
</svg>
