<?xml version="1.0" standalone="no"?>
<!DOCTYPE svg PUBLIC "-//W3C//DTD SVG 20010904//EN"
 "http://www.w3.org/TR/2001/REC-SVG-20010904/DTD/svg10.dtd">
<svg version="1.0" xmlns="http://www.w3.org/2000/svg"
 width="133.000000pt" height="133.000000pt" viewBox="0 0 133.000000 133.000000"
 preserveAspectRatio="xMidYMid meet">

<g transform="translate(0.000000,133.000000) scale(0.100000,-0.100000)"
fill="#000000" stroke="none">
<path d="M595 1278 c-184 -46 -251 -78 -345 -165 -87 -80 -135 -159 -176 -291
-40 -127 -41 -175 -10 -292 60 -224 213 -390 411 -449 44 -13 88 -27 97 -32
23 -12 163 -12 186 0 9 5 40 15 67 21 92 21 193 79 270 155 82 81 124 150 155
255 13 41 29 92 36 113 18 48 18 100 0 140 -7 18 -21 61 -30 97 -27 102 -72
177 -161 266 -89 90 -159 130 -271 158 -38 9 -83 21 -100 27 -36 11 -75 10
-129 -3z m-45 -189 c15 -27 5 -66 -19 -74 -10 -3 -46 -23 -80 -45 -104 -67
-161 -178 -161 -316 0 -149 82 -281 215 -343 45 -21 61 -47 50 -81 -9 -28 -38
-25 -108 12 -257 137 -330 474 -152 701 51 65 107 109 180 143 62 28 62 28 75
3z m319 -11 c181 -86 295 -301 263 -494 -25 -150 -133 -294 -267 -355 -36 -16
-70 -27 -75 -24 -6 4 -10 23 -10 44 0 35 3 38 53 63 112 56 185 154 208 282
29 158 -57 324 -207 403 -50 26 -54 31 -54 64 0 32 6 49 18 49 2 0 34 -14 71
-32z m-161 -150 c2 -28 9 -39 25 -44 53 -16 108 -93 86 -120 -15 -19 -55 -18
-71 2 -39 47 -50 54 -84 54 -54 0 -74 -15 -74 -55 0 -41 10 -47 100 -65 82
-15 116 -33 135 -70 37 -71 7 -153 -68 -189 -41 -20 -46 -26 -49 -59 -3 -32
-7 -37 -31 -40 -38 -5 -57 14 -57 53 0 28 -4 33 -31 39 -56 11 -112 88 -95
131 3 9 18 15 34 15 22 0 34 -9 53 -37 22 -35 28 -38 76 -41 59 -3 93 19 93
62 0 33 -16 43 -100 61 -98 21 -132 41 -148 91 -24 70 22 152 94 170 19 5 24
13 24 38 0 42 7 48 50 44 33 -3 35 -6 38 -40z"/>
</g>
</svg>
